<?xml version="1.0" encoding="utf-8"?>
<!-- Generator: Adobe Illustrator 20.0.0, SVG Export Plug-In . SVG Version: 6.00 Build 0)  -->
<svg version="1.1" id="Layer_1" xmlns="http://www.w3.org/2000/svg" xmlns:xlink="http://www.w3.org/1999/xlink" x="0px" y="0px"
	 viewBox="0 0 299.1 299.1" style="enable-background:new 0 0 299.1 299.1;" xml:space="preserve">
<style type="text/css">
	.st0{fill:url(#SVGID_1_);}
	.st1{fill:url(#SVGID_2_);}
	.st2{fill:url(#SVGID_3_);}
	.st3{opacity:0.1;fill:#0D137F;}
	.st4{fill:url(#SVGID_4_);}
</style>
<linearGradient id="SVGID_1_" gradientUnits="userSpaceOnUse" x1="269.6778" y1="69.6023" x2="165.1848" y2="127.5141">
	<stop  offset="0" style="stop-color:#6ADFFF"/>
	<stop  offset="1" style="stop-color:#1565FF"/>
</linearGradient>
<path class="st0" d="M222.3,63.6c0,0,23.3,38.1,23.7,48.7s-40.4,8-41.2,16.9C204.8,129.2,209.2,85.5,222.3,63.6z"/>
<linearGradient id="SVGID_2_" gradientUnits="userSpaceOnUse" x1="150.0468" y1="-19.4462" x2="150.0468" y2="120.2975">
	<stop  offset="0" style="stop-color:#6ADFFF"/>
	<stop  offset="1" style="stop-color:#1565FF"/>
</linearGradient>
<path class="st1" d="M179.7,48.7c-25.4,5.4-34.8,4.9-60.1,0.6v6.3L143.3,74h26.4l10.7-20.2L179.7,48.7z"/>
<linearGradient id="SVGID_3_" gradientUnits="userSpaceOnUse" x1="149.5112" y1="-1.1914" x2="149.5112" y2="244.9731">
	<stop  offset="0" style="stop-color:#6ADFFF"/>
	<stop  offset="1" style="stop-color:#1565FF"/>
</linearGradient>
<path class="st2" d="M210.3,242.1c-57.5,18.6-122.1,0-122.1,0c23-119.4-11.5-178.5-11.5-178.5s23.2-5.6,42.9-14.3
	c5.2,11.4,16.6,19.3,29.9,19.3c13.5,0,25.1-8.2,30.2-19.8h0.6c16,9.7,42,14.9,42,14.9C192.2,119.4,210.3,242.1,210.3,242.1z"/>
<path class="st3" d="M89.2,242.4c8.2,2.2,66.8,16.8,119.9,0.1c-4.5-3.6-29.7-6.3-60-6.3C119,236.2,94.1,238.9,89.2,242.4z"/>
<linearGradient id="SVGID_4_" gradientUnits="userSpaceOnUse" x1="41.7163" y1="77.6483" x2="122.7372" y2="118.5944">
	<stop  offset="0" style="stop-color:#6ADFFF"/>
	<stop  offset="1" style="stop-color:#1565FF"/>
</linearGradient>
<path class="st4" d="M76.8,63.6c0,0-23.3,38.1-23.7,48.7c-0.4,10.6,40.4,8,41.2,16.9C94.3,129.2,89.9,85.5,76.8,63.6z"/>
</svg>
