<svg width="120" height="25" viewBox="0 0 120 25" fill="none" xmlns="http://www.w3.org/2000/svg">
<path fill-rule="evenodd" clip-rule="evenodd" d="M28.5702 9.4342C28.3808 10.1311 28.0138 10.6427 27.4691 10.9692C26.9238 11.2957 26.1589 11.4594 25.1723 11.4594H22.0379L23.1382 7.40942H26.2726C27.2585 7.40942 27.9353 7.57271 28.303 7.89923C28.67 8.22619 28.7596 8.73768 28.5702 9.4342ZM31.8162 9.347C32.2148 7.88155 32.0496 6.75637 31.3207 5.97258C30.5918 5.18886 29.3146 4.79712 27.4904 4.79712H20.4934L16.2822 20.2981H19.6816L21.3795 14.0496H23.6088C24.1086 14.0496 24.5021 14.1296 24.7899 14.2892C25.0783 14.4493 25.2472 14.7323 25.2993 15.1382L25.9056 20.2981H29.5479L28.957 15.4868C28.8366 14.4127 28.3383 13.7813 27.4625 13.5927C28.579 13.2738 29.5142 12.7435 30.2673 12.0031C31.0198 11.2631 31.5365 10.378 31.8162 9.347Z" fill="white"/>
<path fill-rule="evenodd" clip-rule="evenodd" d="M40.0788 14.7453C39.7948 15.7901 39.3572 16.5887 38.7663 17.1401C38.1747 17.6918 37.467 17.9673 36.6435 17.9673C35.8037 17.9673 35.2341 17.6954 34.9338 17.1509C34.6321 16.6068 34.6218 15.8198 34.9023 14.7888C35.1819 13.7585 35.6282 12.953 36.2426 12.3719C36.8563 11.792 37.575 11.5013 38.3992 11.5013C39.2229 11.5013 39.7808 11.7811 40.0699 12.3397C40.3592 12.8983 40.3628 13.7002 40.0788 14.7453ZM41.5689 9.25894L41.1432 10.8265C40.9589 10.2603 40.6029 9.81066 40.0758 9.47689C39.5481 9.14312 38.894 8.97583 38.1144 8.97583C37.158 8.97583 36.2382 9.21914 35.3559 9.70534C34.4736 10.1918 33.7021 10.8775 33.0422 11.7627C32.3823 12.6482 31.8985 13.6568 31.5909 14.7888C31.2834 15.9212 31.2217 16.9189 31.4067 17.7823C31.5917 18.6461 31.9925 19.31 32.6098 19.7745C33.2264 20.2393 34.0207 20.471 34.9918 20.471C35.7714 20.471 36.5143 20.3114 37.219 19.9921C37.9236 19.6731 38.5218 19.2301 39.0144 18.6642L38.5703 20.2969H41.8588L44.8575 9.25894H41.5689Z" fill="white"/>
<path fill-rule="evenodd" clip-rule="evenodd" d="M56.6819 9.2594H47.1246L46.4565 11.7196H52.0184L44.6647 17.9895L44.0371 20.2973H53.9035L54.5722 17.8374H48.6133L56.0786 11.48L56.6819 9.2594Z" fill="white"/>
<path fill-rule="evenodd" clip-rule="evenodd" d="M65.0958 14.7236C64.8 15.8118 64.3617 16.6253 63.7818 17.1622C63.202 17.699 62.5002 17.9673 61.6766 17.9673C59.9545 17.9673 59.3878 16.8866 59.9751 14.7236C60.2672 13.6495 60.7076 12.8404 61.2964 12.2963C61.8857 11.7518 62.5993 11.4796 63.4383 11.4796C64.2619 11.4796 64.8176 11.7518 65.1039 12.2963C65.3901 12.8404 65.388 13.6495 65.0958 14.7236ZM67.0198 9.67235C66.263 9.20821 65.2962 8.97583 64.1188 8.97583C62.9267 8.97583 61.8227 9.20821 60.8061 9.67235C59.7894 10.1372 58.9239 10.8048 58.2097 11.6754C57.4947 12.5464 56.9794 13.5623 56.6637 14.7236C56.3481 15.8849 56.3114 16.9004 56.5537 17.7714C56.7952 18.6424 57.2973 19.31 58.0621 19.7745C58.8263 20.2393 59.804 20.471 60.9962 20.471C62.1735 20.471 63.2665 20.2393 64.2759 19.7745C65.2837 19.31 66.1462 18.6424 66.8612 17.7714C67.5754 16.9004 68.0907 15.8849 68.4064 14.7236C68.722 13.5623 68.7588 12.5464 68.5172 11.6754C68.275 10.8048 67.7758 10.1372 67.0198 9.67235Z" fill="white"/>
<path fill-rule="evenodd" clip-rule="evenodd" d="M101.416 14.7453C101.132 15.7901 100.695 16.5887 100.104 17.1401C99.5127 17.6918 98.8036 17.9673 97.9801 17.9673C97.1418 17.9673 96.5714 17.6954 96.2712 17.1509C95.9694 16.6068 95.9592 15.8198 96.2396 14.7888C96.5193 13.7585 96.9656 12.953 97.58 12.3719C98.1936 11.792 98.9123 11.5013 99.7366 11.5013C100.56 11.5013 101.118 11.7811 101.407 12.3397C101.697 12.8983 101.7 13.7002 101.416 14.7453ZM102.906 9.25894L102.481 10.8265C102.296 10.2603 101.94 9.81066 101.413 9.47689C100.885 9.14312 100.231 8.97583 99.4518 8.97583C98.4953 8.97583 97.5756 9.21914 96.6933 9.70534C95.8109 10.1918 95.0394 10.8775 94.3795 11.7627C93.7196 12.6482 93.2358 13.6568 92.9283 14.7888C92.6207 15.9212 92.5597 16.9189 92.744 17.7823C92.929 18.6461 93.3291 19.31 93.9471 19.7745C94.5638 20.2393 95.358 20.471 96.3292 20.471C97.1087 20.471 97.8516 20.3114 98.5563 19.9921C99.261 19.6731 99.8592 19.2301 100.352 18.6642L99.9077 20.2969H103.196L106.195 9.25894H102.906Z" fill="white"/>
<path fill-rule="evenodd" clip-rule="evenodd" d="M78.745 12.2202L79.5833 9.21581C79.2985 9.0707 78.9211 8.99792 78.4507 8.99792C77.6997 8.99792 76.9767 9.18289 76.2801 9.55327C75.6818 9.87092 75.1724 10.3169 74.7422 10.8757L75.1783 9.25773L74.2261 9.25929H71.8908L68.8691 20.2972H72.2031L73.7703 14.5281C73.9987 13.6864 74.4082 13.0297 75.0006 12.558C75.5915 12.0863 76.3292 11.8502 77.2123 11.8502C77.7569 11.8502 78.2671 11.9737 78.745 12.2202Z" fill="white"/>
<path fill-rule="evenodd" clip-rule="evenodd" d="M88.0245 14.7884C87.7441 15.8194 87.3096 16.6064 86.7208 17.1505C86.1307 17.695 85.4245 17.9669 84.6009 17.9669C83.7766 17.9669 83.2151 17.6914 82.9163 17.1397C82.6168 16.5883 82.6095 15.7901 82.8935 14.745C83.1776 13.6998 83.6195 12.8979 84.22 12.3393C84.8204 11.7807 85.5332 11.5009 86.3575 11.5009C87.1664 11.5009 87.7162 11.7916 88.0076 12.3719C88.2983 12.9526 88.3042 13.7585 88.0245 14.7884ZM90.3544 9.70496C89.7357 9.21871 88.948 8.97583 87.9922 8.97583C87.1532 8.97583 86.3546 9.16442 85.5985 9.54167C84.8403 9.9196 84.2259 10.434 83.7546 11.0874L83.7652 11.015L84.3253 9.257H83.6808V9.25856H81.0709L80.2422 12.3109C80.2326 12.3464 80.2245 12.3795 80.2149 12.4153L76.7965 24.9991H80.1299L81.8512 18.6642C82.02 19.2296 82.3709 19.6727 82.9024 19.9917C83.4338 20.3109 84.0893 20.4706 84.8696 20.4706C85.8408 20.4706 86.7642 20.2389 87.6413 19.7741C88.5178 19.31 89.2797 18.6457 89.9258 17.7819C90.5724 16.9189 91.0496 15.9207 91.3571 14.7884C91.6648 13.6563 91.7285 12.6478 91.5502 11.7623C91.3718 10.8771 90.9725 10.1915 90.3544 9.70496Z" fill="white"/>
<path fill-rule="evenodd" clip-rule="evenodd" d="M119.998 9.26246L120 9.2594H117.981C117.916 9.2594 117.859 9.26121 117.8 9.26246H116.753L116.217 9.99884C116.174 10.0543 116.131 10.1102 116.085 10.1749L116.026 10.2602L111.768 16.1102L110.885 9.2594H107.396L109.163 19.6696L105.262 25H105.373H107.365H108.737L109.683 23.6791C109.71 23.6397 109.734 23.6075 109.764 23.5658L110.867 22.023L110.899 21.9789L115.835 15.0765L119.994 9.26702L120 9.26246H119.998Z" fill="white"/>
<path fill-rule="evenodd" clip-rule="evenodd" d="M7.71625 6.57216L6.71838 10.1943L12.4282 6.5518L8.69416 20.2939L12.4861 20.2973L18.0022 0L7.71625 6.57216Z" fill="#3395FF"/>
<path fill-rule="evenodd" clip-rule="evenodd" d="M1.56982 14.5209L0 20.298H7.77251C7.77251 20.298 10.9517 8.54872 10.9525 8.54529C10.9496 8.54716 1.56982 14.5209 1.56982 14.5209Z" fill="white"/>
</svg>
