<svg width="16" height="16" viewBox="0 0 16 16" fill="none" xmlns="http://www.w3.org/2000/svg">
<path fill-rule="evenodd" clip-rule="evenodd" d="M5.33333 8C5.33333 6.52724 6.52724 5.33333 8 5.33333C9.47276 5.33333 10.6667 6.52724 10.6667 8C10.6667 9.47276 9.47276 10.6667 8 10.6667C6.52724 10.6667 5.33333 9.47276 5.33333 8ZM8 6.66667C7.26362 6.66667 6.66667 7.26362 6.66667 8C6.66667 8.73638 7.26362 9.33333 8 9.33333C8.73638 9.33333 9.33333 8.73638 9.33333 8C9.33333 7.26362 8.73638 6.66667 8 6.66667Z" fill="white"/>
<path fill-rule="evenodd" clip-rule="evenodd" d="M8 1.33333C7.63181 1.33333 7.33333 1.63181 7.33333 2V2.11599C7.33052 2.82014 6.90983 3.45537 6.26262 3.73276C6.20629 3.7569 6.14703 3.77311 6.08653 3.78103C5.45651 4.00191 4.75009 3.84897 4.26716 3.37657L4.2619 3.37143L4.22193 3.3314C4.09688 3.20622 3.92694 3.13562 3.75 3.13562C3.57306 3.13562 3.40338 3.20596 3.27833 3.33114L3.27781 3.33167C3.15262 3.45671 3.08228 3.62639 3.08228 3.80333C3.08228 3.98027 3.15262 4.14995 3.27781 4.275L3.32327 4.32046C3.82337 4.83172 3.96542 5.59346 3.68497 6.24985C3.42952 6.9198 2.79378 7.36969 2.07559 7.38648L2.06 7.38667H2C1.63181 7.38667 1.33333 7.68514 1.33333 8.05333C1.33333 8.42152 1.63181 8.72 2 8.72H2.11599C2.81894 8.7228 3.45321 9.14207 3.73134 9.78741C4.02105 10.4474 3.88076 11.2174 3.37657 11.7328L3.37143 11.7381L3.33141 11.7781C3.20622 11.9031 3.13562 12.0731 3.13562 12.25C3.13562 12.4269 3.20596 12.5966 3.33114 12.7217L3.33167 12.7222C3.45671 12.8474 3.62639 12.9177 3.80333 12.9177C3.98027 12.9177 4.14995 12.8474 4.275 12.7222L4.32046 12.6767C4.83172 12.1766 5.59345 12.0346 6.24985 12.315C6.9198 12.5705 7.36969 13.2062 7.38648 13.9244L7.38667 13.94V14C7.38667 14.3682 7.68514 14.6667 8.05333 14.6667C8.42152 14.6667 8.72 14.3682 8.72 14V13.8867L8.72001 13.884C8.72281 13.181 9.14211 12.5467 9.78749 12.2686C10.4475 11.979 11.2174 12.1193 11.7328 12.6234L11.7381 12.6286L11.7781 12.6686C11.9031 12.7938 12.0731 12.8644 12.25 12.8644C12.4269 12.8644 12.5966 12.794 12.7217 12.6689L12.7222 12.6683C12.8474 12.5433 12.9177 12.3736 12.9177 12.1967C12.9177 12.0197 12.8474 11.85 12.7222 11.725L12.6767 11.6795C12.1726 11.1641 12.0323 10.3941 12.322 9.73416C12.6001 9.08877 13.2344 8.66948 13.9373 8.66667L13.94 8.66666L14 8.66667C14.3682 8.66667 14.6667 8.36819 14.6667 8C14.6667 7.63181 14.3682 7.33333 14 7.33333H13.8867L13.884 7.33333C13.1799 7.33052 12.5446 6.90983 12.2672 6.26262C12.2431 6.20629 12.2269 6.14703 12.219 6.08653C11.9981 5.4565 12.151 4.75009 12.6234 4.26716L12.6286 4.2619L12.6686 4.22193C12.7938 4.09688 12.8644 3.92694 12.8644 3.75C12.8644 3.57306 12.794 3.40338 12.6689 3.27833L12.6683 3.27781C12.5433 3.15262 12.3736 3.08228 12.1967 3.08228C12.0197 3.08228 11.85 3.15262 11.725 3.27781L11.6795 3.32327C11.1641 3.82746 10.3941 3.96772 9.73408 3.67801C9.08874 3.39988 8.66948 2.7656 8.66667 2.06266L8.66667 2.06V2C8.66667 1.63181 8.36819 1.33333 8 1.33333ZM6 2C6 0.895431 6.89543 0 8 0C9.10457 0 10 0.895431 10 2V2.05833C10.0011 2.23065 10.1042 2.386 10.2626 2.45391L10.2692 2.45672C10.4304 2.52787 10.6185 2.49433 10.7451 2.37208L10.7817 2.33552C11.1568 1.95997 11.6658 1.74895 12.1967 1.74895C12.7275 1.74895 13.2365 1.95997 13.6117 2.33552C13.9869 2.71061 14.1977 3.21943 14.1977 3.75C14.1977 4.28069 13.9868 4.78963 13.6114 5.16474L13.5746 5.20154C13.4523 5.32816 13.4188 5.51629 13.4899 5.67749C13.5088 5.72019 13.523 5.76464 13.5325 5.81008C13.6116 5.92666 13.744 5.9991 13.8883 6H14C15.1046 6 16 6.89543 16 8C16 9.10457 15.1046 10 14 10H13.9417C13.7693 10.0011 13.614 10.1042 13.5461 10.2626L13.5433 10.2692C13.4721 10.4304 13.5057 10.6185 13.6279 10.7451L13.6645 10.7817C14.0399 11.1568 14.251 11.666 14.251 12.1967C14.251 12.7274 14.0401 13.2363 13.6647 13.6114C13.2896 13.9868 12.7807 14.1977 12.25 14.1977C11.7193 14.1977 11.2104 13.9868 10.8353 13.6114L10.7984 13.5746C10.6718 13.4523 10.4837 13.4188 10.3225 13.4899L10.316 13.4928C10.1575 13.5607 10.0544 13.716 10.0533 13.8883V14C10.0533 15.1046 9.1579 16 8.05333 16C6.94876 16 6.05333 15.1046 6.05333 14V13.9496C6.04681 13.7742 5.93499 13.6197 5.76988 13.559C5.7567 13.5542 5.74367 13.5489 5.73082 13.5432C5.56962 13.4721 5.38149 13.5057 5.25487 13.6279L5.21833 13.6645C4.84322 14.0399 4.33403 14.251 3.80333 14.251C3.27276 14.251 2.76394 14.0402 2.38886 13.665C2.0133 13.2899 1.80228 12.7808 1.80228 12.25C1.80228 11.7192 2.0133 11.2101 2.38886 10.835L2.42541 10.7984C2.54766 10.6718 2.58123 10.4837 2.51009 10.3225L2.50721 10.316C2.4393 10.1575 2.28399 10.0544 2.11167 10.0533H2C0.895431 10.0533 0 9.1579 0 8.05333C0 6.94876 0.895431 6.05333 2 6.05333H2.05043C2.22584 6.04681 2.38025 5.93499 2.44098 5.76988C2.44582 5.7567 2.45109 5.74367 2.45676 5.73082C2.5279 5.56962 2.49433 5.3815 2.37207 5.25488L2.33552 5.21833C1.95997 4.8432 1.74895 4.33415 1.74895 3.80333C1.74895 3.27264 1.95987 2.76371 2.33526 2.3886C2.71037 2.01321 3.21931 1.80228 3.75 1.80228C4.28082 1.80228 4.78986 2.0133 5.165 2.38886L5.20154 2.4254C5.32816 2.54766 5.51629 2.58124 5.67749 2.51009C5.7202 2.49124 5.76465 2.47698 5.81009 2.46747C5.92666 2.38835 5.9991 2.25596 6 2.11167V2Z" fill="white"/>
</svg>
