<?xml version="1.0" encoding="utf-8"?>
<!-- Generator: Adobe Illustrator 20.0.0, SVG Export Plug-In . SVG Version: 6.00 Build 0)  -->
<svg version="1.1" id="Layer_1" xmlns="http://www.w3.org/2000/svg" xmlns:xlink="http://www.w3.org/1999/xlink" x="0px" y="0px"
	 viewBox="0 0 27.7 26.4" style="enable-background:new 0 0 27.7 26.4;" xml:space="preserve">
<style type="text/css">
	.st0{fill:url(#SVGID_1_);}
</style>
<linearGradient id="SVGID_1_" gradientUnits="userSpaceOnUse" x1="13.8398" y1="20.4101" x2="13.8398" y2="2.0424">
	<stop  offset="0" style="stop-color:#FFB717"/>
	<stop  offset="1" style="stop-color:#F4D30C"/>
</linearGradient>
<path class="st0" d="M13.1,0.9c0.4-1.2,1-1.2,1.4,0l2.2,6.6c0.4,1.2,1.7,2.1,2.9,2.1h7c1.2,0,1.4,0.6,0.4,1.3l-5.6,4.1
	c-1,0.7-1.5,2.3-1.1,3.5l2.2,6.6c0.4,1.2-0.1,1.5-1.1,0.8l-5.6-4.1c-1-0.7-2.6-0.7-3.6,0L6.4,26c-1,0.7-1.5,0.4-1.1-0.8l2.2-6.6
	c0.4-1.2-0.1-2.7-1.1-3.5L0.6,11c-1-0.7-0.8-1.3,0.4-1.3h7c1.2,0,2.6-1,2.9-2.1L13.1,0.9z"/>
</svg>
